<svg width="69" height="42" viewBox="0 0 69 42" fill="none" xmlns="http://www.w3.org/2000/svg">
<g clip-path="url(#clip0_1_163)">
<path d="M44.1865 20.9611L45.465 23.9114C45.7013 24.4552 46.3519 24.7124 46.9195 24.4865C47.4881 24.2629 47.7577 23.6401 47.5221 23.0961L46.2439 20.1467L44.1865 20.9611Z" fill="#333333"/>
<path d="M45.0396 22.9277L47.0965 22.1133L45.0396 22.9277Z" fill="#333333"/>
<path d="M41.489 14.7341L44.3983 15.8859L41.489 14.7341Z" fill="#333333"/>
<path d="M43.072 8.75375C43.072 10.3215 41.7432 11.5922 40.1048 11.5922C38.4646 11.5922 37.1355 10.3215 37.1355 8.75375C37.1355 7.18627 38.4646 5.91626 40.1048 5.91626C41.7429 5.91626 43.072 7.18627 43.072 8.75375Z" fill="#333333"/>
<path d="M41.5876 8.75367C41.5876 9.53804 40.9236 10.1735 40.1044 10.1735C39.2842 10.1735 38.6187 9.53804 38.6187 8.75367C38.6187 7.96995 39.2842 7.33447 40.1044 7.33447C40.9236 7.33412 41.5876 7.96995 41.5876 8.75367Z" fill="#333333"/>
<path d="M38.0225 10.7769L33.9617 20.1472L32.9438 24.3522L33.6294 24.6237L36.0194 20.9616L36.588 19.651C36.1444 18.6263 36.6527 17.4515 37.7242 17.0279L40.0788 11.5913C39.278 11.5849 38.5534 11.2756 38.0225 10.7769Z" fill="#333333"/>
<path d="M42.1848 10.7761C41.6535 11.2755 40.9283 11.5848 40.1274 11.5909L43.6203 19.6493L45.6767 18.8353L42.1848 10.7761Z" fill="#333333"/>
<path d="M41.217 4.49677V1.30335C41.2166 0.714829 40.7166 0.23877 40.1038 0.23877C39.4889 0.23877 38.9906 0.714186 38.9902 1.30335L38.9906 4.49677H41.217Z" fill="#333333"/>
<path d="M40.1046 5.91605C40.2943 5.91605 40.4802 5.93426 40.6602 5.96687V4.49683H39.5474V5.96687C39.728 5.93394 39.913 5.91605 40.1046 5.91605Z" fill="#333333"/>
<path d="M24.6474 25.7978H20.9446V0.238037H24.648C25.4662 0.238037 26.1291 0.874166 26.1291 1.65854V24.3786H26.1288C26.1285 25.163 25.4656 25.7978 24.6474 25.7978Z" fill="#333333"/>
<path d="M24.4628 2.36844C24.7696 2.36844 25.0184 2.12998 25.0184 1.83583C25.0184 1.54168 24.7696 1.30322 24.4628 1.30322C24.156 1.30322 23.9072 1.54168 23.9072 1.83583C23.9072 2.12998 24.156 2.36844 24.4628 2.36844Z" fill="#333333"/>
<path d="M28.7212 15.3267C28.7212 15.6197 28.9702 15.8589 29.2768 15.8589C29.5837 15.8589 29.8324 15.6197 29.8324 15.3267C29.8324 15.6197 30.0817 15.8589 30.3879 15.8589C30.6949 15.8589 30.9435 15.6197 30.9435 15.3267C30.9435 15.6197 30.6949 15.8589 30.3879 15.8589C30.0817 15.8589 29.8324 15.6197 29.8324 15.3267C29.8324 15.6197 29.5837 15.8589 29.2768 15.8589C28.9702 15.8589 28.7212 15.6197 28.7212 15.3267Z" fill="#333333"/>
<path d="M29.4621 0.238037C29.0534 0.238037 28.7212 0.55658 28.7212 0.948927V0.948606V15.8588L29.832 20.1187L30.9432 15.8588V0.94829V0.948606C30.9432 0.556899 30.6113 0.238356 30.2023 0.238356L29.4621 0.238037Z" fill="#333333"/>
</g>
<defs>
<clipPath id="clip0_1_163">
<rect width="68.5517" height="41.5272" fill="white"/>
</clipPath>
</defs>
</svg>
